PathFileType	4	(X/Y/Z)	 s06c0103.trc
DataRate	CameraRate	NumFrames	NumMarkers	Units	OrigDataRate	OrigDataStartFrame	OrigNumFrames
200	200	4	48	mm	200	751	2000
Frame#	Time	racr			lacr			c7			jug			rlel			rdr			llel			ldr			s2			lic			ric			lasi			rasi			rpsi			lpsi			rgt			lgt			rth1			rth2			rth3			rth4			rlfc			rmfc			rsh1			rsh2			rsh3			rsh4			rlmal			rcal			rtoe			rmt5			lth1			lth2			lth4			lth3			llfc			lmfc			llmal			lcal			lmt5			lsh1			lsh2			lsh3			lsh4			ltoe			SBIKE			LBIKE			RBIKE			
		X1	Y1	Z1	X2	Y2	Z2	X3	Y3	Z3	X4	Y4	Z4	X5	Y5	Z5	X6	Y6	Z6	X7	Y7	Z7	X8	Y8	Z8	X9	Y9	Z9	X10	Y10	Z10	X11	Y11	Z11	X12	Y12	Z12	X13	Y13	Z13	X14	Y14	Z14	X15	Y15	Z15	X16	Y16	Z16	X17	Y17	Z17	X18	Y18	Z18	X19	Y19	Z19	X20	Y20	Z20	X21	Y21	Z21	X22	Y22	Z22	X23	Y23	Z23	X24	Y24	Z24	X25	Y25	Z25	X26	Y26	Z26	X27	Y27	Z27	X28	Y28	Z28	X29	Y29	Z29	X30	Y30	Z30	X31	Y31	Z31	X32	Y32	Z32	X33	Y33	Z33	X34	Y34	Z34	X35	Y35	Z35	X36	Y36	Z36	X37	Y37	Z37	X38	Y38	Z38	X39	Y39	Z39	X40	Y40	Z40	X41	Y41	Z41	X42	Y42	Z42	X43	Y43	Z43	X44	Y44	Z44	X45	Y45	Z45	X46	Y46	Z46	X47	Y47	Z47	X48	Y48	Z48	
751	3.7550	498.780860	1322.952054	-46.755256	502.618580	1314.268395	-345.255906	488.010818	1388.956995	-195.932782	495.477051	1226.780363	-191.026660	550.321416	1078.842807	58.420882	722.314200	916.574027	-29.949755	476.006616	1045.369311	-425.502580	699.360086	940.753091	-392.434842	-51.999546	1173.980858	-173.405170	107.337580	1156.469248	-345.872423	105.072534	1116.069850	-18.513582	119.851379	1104.865631	-313.681280	127.807851	1076.706819	-60.482817	-16.841159	1202.196510	-136.753130	-21.033796	1214.044511	-195.197332	60.474854	1022.361966	-0.989443	76.663764	1122.046403	-376.038519	143.704791	917.442169	-1.113124	209.274653	856.080568	-11.720789	233.540900	772.772433	-23.200492	237.237857	877.273602	-26.746850	257.601424	672.298822	-43.220252	242.822423	655.686952	-155.535301	196.439869	566.063315	-21.042638	168.041900	486.308069	-44.395072	105.611861	425.434301	-47.863939	188.670009	478.475249	-78.612749	51.948233	364.321307	-54.937200	-10.443535	380.612271	-104.510548	175.567587	175.276175	-88.014204	88.648101	230.930794	-25.714101	141.803081	1028.665980	-401.521118	224.762243	1001.381300	-398.362067	243.953436	1029.359619	-382.261672	284.471623	934.653402	-401.401356	353.504642	836.273594	-377.260191	364.952001	814.754279	-261.815273	230.716562	476.843167	-369.975516	161.633248	434.719119	-321.480337	355.350524	430.676462	-402.327593	325.704255	728.347893	-398.628300	316.991357	643.343221	-380.075177	267.889535	569.536951	-380.004732	342.044364	638.757219	-350.065365	441.050613	451.200863	-345.705290	-204.691438	867.319628	-202.317752	-52.067752	84.030850	-410.091504	-50.547342	80.411938	-12.461853	
752	3.7600	497.456561	1322.358563	-46.325880	502.262531	1314.309656	-343.931040	487.798386	1388.508417	-194.552588	493.746680	1226.486678	-190.920198	549.963396	1078.672713	59.161881	722.145649	916.541269	-29.808889	477.168137	1046.157660	-425.442686	699.147858	940.728859	-392.450927	-52.866684	1172.392429	-174.052626	107.349448	1153.747594	-346.164146	103.821062	1115.530062	-18.114341	120.319844	1102.658893	-313.058189	127.237480	1075.608653	-60.213144	-17.887669	1200.724386	-137.498764	-21.767713	1212.302149	-196.181798	60.491017	1022.778536	0.276098	76.623438	1117.557572	-376.830826	145.497586	919.282576	-0.386515	212.837702	859.043100	-11.280348	238.663040	776.498337	-21.856695	240.162220	880.844191	-26.423182	263.196637	675.795154	-41.934489	248.507450	659.181890	-153.717607	199.484589	570.995436	-20.189284	168.761609	492.208194	-43.923529	104.746492	433.019574	-47.486700	189.079226	483.960061	-78.171679	49.064929	373.910355	-54.605154	-13.120733	391.495970	-103.910209	169.710359	183.103527	-87.936796	83.700906	239.983223	-25.563967	141.892107	1023.121771	-401.621514	224.234713	994.168758	-397.771281	243.903058	1021.884826	-381.810227	282.668423	926.406970	-400.284879	349.231942	826.027934	-376.525462	359.733839	803.594563	-263.901730	234.601673	464.997431	-369.660193	165.921611	421.883927	-320.938208	360.061902	420.816475	-402.048899	323.748306	717.596560	-397.551584	317.087205	632.462516	-379.135109	269.847765	557.699613	-379.161609	342.251791	628.347418	-348.740213	445.507032	442.824725	-345.788021	-204.641180	867.353216	-202.246934	-52.071781	84.016289	-410.095564	-50.469233	80.183238	-12.624119	
753	3.7650	496.180824	1321.408457	-46.053072	501.909959	1314.122194	-342.886553	487.486545	1388.035474	-193.351973	492.097334	1226.188890	-191.312312	549.459836	1078.422689	59.632519	722.044333	916.509798	-29.698229	478.248314	1046.647462	-424.994475	698.939070	940.781006	-392.477706	-53.651085	1170.614692	-174.725893	107.272688	1150.965490	-346.519214	101.627894	1114.719305	-18.639201	120.838475	1100.485498	-312.451429	126.725432	1074.399245	-59.984936	-18.837410	1199.259093	-138.235729	-22.513042	1210.426659	-197.180707	60.623269	1022.998463	1.340661	76.539821	1112.862886	-377.556853	147.522641	921.119728	0.347834	216.216464	862.485683	-10.430232	244.552235	780.285064	-20.242358	242.862395	884.865876	-25.954878	268.350712	679.776984	-40.769600	254.040505	662.710463	-152.123785	202.850779	576.074186	-19.252731	169.900298	498.336672	-43.265045	104.235213	440.978481	-47.066968	189.796900	489.837698	-77.762508	46.805374	383.702680	-54.271665	-15.685257	402.207243	-104.397282	164.434669	191.272476	-87.789299	79.273078	249.414351	-25.387862	142.016502	1017.460389	-401.857931	223.722714	986.879979	-397.273953	243.854217	1014.240854	-381.315121	280.737644	917.903172	-399.162817	344.997697	815.553817	-375.879274	355.314821	793.096217	-263.652488	238.312831	453.236757	-369.399223	170.364197	409.391709	-320.561476	364.422220	411.130765	-402.173062	321.598345	706.838679	-396.712319	316.922194	621.541835	-378.280519	271.383031	545.595085	-377.752820	342.199221	618.012303	-347.835206	449.572114	433.803383	-345.750347	-204.619328	867.360435	-202.082425	-52.084667	84.005809	-410.091597	-50.478952	80.142270	-12.608511	
754	3.7700	495.029992	1320.991853	-45.296317	501.571033	1313.734903	-342.062206	487.000438	1387.542272	-192.377319	490.895262	1225.910596	-191.171643	548.845638	1078.116401	59.832762	721.990185	916.438479	-29.597451	479.126573	1046.846557	-424.427897	698.661926	941.069201	-392.667371	-54.527078	1168.785255	-175.689742	107.163031	1148.216205	-346.896954	100.937986	1113.641277	-18.471914	121.407608	1098.400783	-311.867485	125.992839	1073.269168	-60.031955	-19.603084	1197.668995	-138.956240	-23.108232	1208.491333	-198.170899	60.838377	1023.146241	2.239586	76.350088	1108.032154	-378.252006	149.787914	923.240907	1.075792	219.571714	865.764564	-9.491814	249.728754	784.424814	-18.628167	245.667836	888.776762	-25.396497	274.196325	683.982080	-39.365197	259.610917	666.475837	-150.377116	206.550783	581.507554	-18.181296	171.377177	504.859124	-42.681065	104.453484	448.895442	-46.497790	191.045201	496.187849	-76.743078	45.184506	393.930533	-53.833943	-16.601956	413.275973	-104.428230	159.755388	199.852928	-87.683514	75.495151	259.135033	-25.204823	142.181106	1011.728855	-402.162966	223.155862	979.350906	-396.786047	243.804441	1006.407152	-380.930610	278.532824	909.319794	-398.389570	340.572698	805.069688	-375.410435	350.607010	782.826896	-263.374865	241.780779	441.614538	-369.241517	174.314871	397.187876	-320.422655	368.386388	400.894843	-402.095083	319.202938	696.005685	-396.132898	316.599815	610.616522	-377.557191	272.640450	533.618922	-376.802650	341.828748	608.011112	-347.401910	453.378314	424.082505	-345.675623	-204.612158	867.314889	-201.870040	-52.084642	84.017120	-410.067685	-50.472126	80.117313	-12.581811	
